:FULLY-SPECIFIED
:FORCE-ALL-JOINTS-BE-3DOF
:DEGREES
612
root -7.40779 14.8372 -40.7474 417.672 -74.5083 304.621
lfemur -28.4895 11.1173 -7.95578
ltibia 51.8014 0 0
lfoot -4.59157 11.3196 0
ltoes -11.0656 0 0
rfemur -32.168 -18.8544 15.0953
rtibia 61.7607 0 0
rfoot -18.3944 -12.3604 0
rtoes -11.9399 0 0
lowerback 14.0856 2.34927 -1.43455
upperback -1.08169 3.15402 2.48897
thorax -9.3239 1.61891 2.80428
lowerneck -1.85802 -4.63606 -8.25235
upperneck 3.0797 -6.30996 7.28483
head 1.96358 -3.11812 3.56981
lclavicle -1.69735e-14 -3.29615e-14 0
lhumerus -9.0976 -19.4428 92.968
lradius 67.0525 0 0
lwrist 22.1997 0 0
lhand -14.3435 82.7625 0
lfingers 7.12502 0 0
lthumb 11.7081 174.112 0
rclavicle -1.69735e-14 -3.29615e-14 0
rhumerus 7.51684 24.6703 -64.1452
rradius 81.747 0 0
rwrist -19.6491 0 0
rhand 4.93401 -16.9413 0
rfingers 7.12502 0 0
rthumb 29.8909 -40.7671 0
613
root -7.40669 14.8509 -40.7116 419.643 -74.5059 302.621
lfemur -29.3297 11.1422 -7.94538
ltibia 51.9927 0 0
lfoot -4.18989 10.9385 0
ltoes -10.93 0 0
rfemur -31.4627 -18.8618 15.2774
rtibia 61.4723 0 0
rfoot -18.5703 -12.7969 0
rtoes -12.1041 0 0
lowerback 14.1166 2.34547 -1.35027
upperback -1.09258 3.16583 2.52825
thorax -9.35195 1.62143 2.7955
lowerneck -1.91907 -4.52332 -8.17304
upperneck 3.15972 -6.16066 7.27931
head 1.98629 -3.04228 3.56276
lclavicle -1.7526e-14 -3.38215e-14 0
lhumerus -7.66135 -19.3197 92.6733
lradius 66.2771 0 0
lwrist 21.2115 0 0
lhand -15.0779 83.1831 0
lfingers 7.12502 0 0
lthumb 11.0016 176.117 0
rclavicle -1.7526e-14 -3.38215e-14 0
rhumerus 7.18388 24.963 -64.5964
rradius 83.0035 0 0
rwrist -20.5862 0 0
rhand 5.61274 -16.7206 0
rfingers 7.12502 0 0
rthumb 30.5341 -40.4034 0
614
root -7.40557 14.8646 -40.6757 421.612 -74.5032 300.624
lfemur -30.1687 11.167 -7.93473
ltibia 52.1838 0 0
lfoot -3.78843 10.5578 0
ltoes -10.795 0 0
rfemur -30.7581 -18.8694 15.4591
rtibia 61.1841 0 0
rfoot -18.7457 -13.2325 0
rtoes -12.2676 0 0
lowerback 14.1476 2.34169 -1.26628
upperback -1.10341 3.17758 2.56747
thorax -9.38 1.62394 2.78683
lowerneck -1.98018 -4.41077 -8.0939
upperneck 3.23998 -6.01163 7.27395
head 2.0091 -2.96657 3.55574
lclavicle -1.80773e-14 -3.46782e-14 0
lhumerus -6.227 -19.1959 92.3793
lradius 65.5023 0 0
lwrist 20.2236 0 0
lhand -15.8137 83.5927 0
lfingers 7.12502 0 0
lthumb 10.2937 178.118 0
rclavicle -1.80773e-14 -3.46782e-14 0
rhumerus 6.85028 25.255 -65.0477
rradius 84.259 0 0
rwrist -21.523 0 0
rhand 6.29013 -16.4997 0
rfingers 7.12502 0 0
rthumb 31.1761 -40.0398 0
615
root -7.40442 14.8783 -40.64 423.578 -74.5004 298.629
lfemur -31.0061 11.1916 -7.92383
ltibia 52.3745 0 0
lfoot -3.38738 10.1778 0
ltoes -10.6606 0 0
rfemur -30.0544 -18.8772 15.6405
rtibia 60.8962 0 0
rfoot -18.9205 -13.667 0
rtoes -12.4302 0 0
lowerback 14.1788 2.33793 -1.18263
upperback -1.11417 3.18928 2.6066
thorax -9.40805 1.62643 2.77826
lowerneck -2.04131 -4.29844 -8.01496
upperneck 3.32044 -5.86291 7.26872
head 2.032 -2.89102 3.54875
lclavicle -1.8627e-14 -3.55312e-14 0
lhumerus -4.79519 -19.0714 92.0863
lradius 64.7284 0 0
lwrist 19.2365 0 0
lhand -16.5505 83.9909 0
lfingers 7.12502 0 0
lthumb 9.58491 180.113 0
rclavicle -1.8627e-14 -3.55312e-14 0
rhumerus 6.51622 25.5463 -65.4989
rradius 85.5129 0 0
rwrist -22.459 0 0
rhand 6.96589 -16.2788 0
rfingers 7.12502 0 0
rthumb 31.8164 -39.6765 0
616
root -7.40326 14.892 -40.6043 425.539 -74.4974 296.639
lfemur -31.8416 11.2162 -7.91269
ltibia 52.5649 0 0
lfoot -2.98692 9.79853 0
ltoes -10.5267 0 0
rfemur -29.352 -18.885 15.8214
rtibia 60.6086 0 0
rfoot -19.0947 -14.1004 0
rtoes -12.5919 0 0
lowerback 14.2101 2.3342 -1.09935
upperback -1.12485 3.20094 2.64564
thorax -9.43608 1.62892 2.76981
lowerneck -2.10244 -4.18639 -7.93626
upperneck 3.40104 -5.71458 7.26364
head 2.05496 -2.81565 3.54179
lclavicle -1.91748e-14 -3.638e-14 0
lhumerus -3.36657 -18.9463 91.7945
lradius 63.9557 0 0
lwrist 18.2503 0 0
lhand -17.2878 84.377 0
lfingers 7.12502 0 0
lthumb 8.8757 182.103 0
rclavicle -1.91748e-14 -3.638e-14 0
rhumerus 6.18185 25.8367 -65.9499
rradius 86.7645 0 0
rwrist -23.3939 0 0
rhand 7.63971 -16.058 0
rfingers 7.12502 0 0
rthumb 32.455 -39.3138 0
617
root -7.40207 14.9056 -40.5687 427.495 -74.4941 294.653
lfemur -32.6746 11.2405 -7.90131
ltibia 52.7547 0 0
lfoot -2.58722 9.4203 0
ltoes -10.3936 0 0
rfemur -28.6512 -18.893 16.0018
rtibia 60.3216 0 0
rfoot -19.2683 -14.5324 0
rtoes -12.7527 0 0
lowerback 14.2414 2.33049 -1.01647
upperback -1.13547 3.21253 2.68455
thorax -9.46407 1.63139 2.76147
lowerneck -2.16353 -4.07467 -7.85783
upperneck 3.48173 -5.5667 7.2587
head 2.07797 -2.74051 3.53486
lclavicle -1.97205e-14 -3.7224e-14 0
lhumerus -1.94179 -18.8206 91.5039
lradius 63.1845 0 0
lwrist 17.2656 0 0
lhand -18.025 84.7504 0
lfingers 7.12502 0 0
lthumb 8.16651 184.085 0
rclavicle -1.97205e-14 -3.7224e-14 0
rhumerus 5.84731 26.1261 -66.4003
rradius 88.0133 0 0
rwrist -24.3269 0 0
rhand 8.31128 -15.8374 0
rfingers 7.12502 0 0
rthumb 33.0914 -38.9517 0
618
root -7.40088 14.9192 -40.5333 429.446 -74.4907 292.673
lfemur -33.5049 11.2647 -7.88969
ltibia 52.9438 0 0
lfoot -2.18847 9.04325 0
ltoes -10.2612 0 0
rfemur -27.9524 -18.901 16.1815
rtibia 60.0354 0 0
rfoot -19.441 -14.9628 0
rtoes -12.9125 0 0
lowerback 14.2728 2.32681 -0.934017
upperback -1.14601 3.22407 2.72333
thorax -9.49201 1.63385 2.75324
lowerneck -2.22455 -3.96332 -7.7797
upperneck 3.56248 -5.41932 7.2539
head 2.10102 -2.66562 3.52797
lclavicle -2.02638e-14 -3.80628e-14 0
lhumerus -0.52151 -18.6944 91.2148
lradius 62.4152 0 0
lwrist 16.2826 0 0
lhand -18.7617 85.1107 0
lfingers 7.12502 0 0
lthumb 7.4578 186.06 0
rclavicle -2.02638e-14 -3.80628e-14 0
rhumerus 5.51277 26.4144 -66.85
rradius 89.2585 0 0
rwrist -25.2578 0 0
rhand 8.98029 -15.6173 0
rfingers 7.12502 0 0
rthumb 33.7254 -38.5906 0
619
root -7.39967 14.9328 -40.4979 431.389 -74.4872 290.7
lfemur -34.332 11.2888 -7.87784
ltibia 53.1321 0 0
lfoot -1.79085 8.66756 0
ltoes -10.1295 0 0
rfemur -27.2559 -18.9091 16.3605
rtibia 59.7499 0 0
rfoot -19.613 -15.3914 0
rtoes -13.0713 0 0
lowerback 14.3042 2.32316 -0.852031
upperback -1.15647 3.23554 2.76196
thorax -9.51988 1.6363 2.74513
lowerneck -2.28548 -3.85239 -7.70192
upperneck 3.64322 -5.27253 7.24925
head 2.12408 -2.59102 3.52111
lclavicle -2.08045e-14 -3.88959e-14 0
lhumerus 0.893626 -18.5677 90.9274
lradius 61.6481 0 0
lwrist 15.3017 0 0
lhand -19.4975 85.4572 0
lfingers 7.12502 0 0
lthumb 6.75004 188.026 0
rclavicle -2.08045e-14 -3.88959e-14 0
rhumerus 5.17839 26.7015 -67.2987
rradius 90.4997 0 0
rwrist -26.186 0 0
rhand 9.64645 -15.3976 0
rfingers 7.12502 0 0
rthumb 34.3567 -38.2306 0
